<?xml version="1.0" encoding="utf-8"?><svg viewBox="0 0 60 60" xmlns="http://www.w3.org/2000/svg" xmlns:xlink="http://www.w3.org/1999/xlink"><style>:root>svg{display:none}:root>svg:target{display:block}</style><svg viewBox="0 0 9 14" id="arrow-btn" xmlns="http://www.w3.org/2000/svg"><path d="M1 1l6 5.998L1 13"/></svg><svg viewBox="0 0 15 19" id="arrow-down" xmlns="http://www.w3.org/2000/svg"><path d="M7.5 0v17.6m-6.5-6L7.5 18l6.5-6.4"/></svg><svg viewBox="0 0 12 8" id="arrow-more" xmlns="http://www.w3.org/2000/svg"><path d="M1 1l5 5 5-5"/></svg><svg viewBox="0 0 44 44" id="arrow-next" xmlns="http://www.w3.org/2000/svg"><rect x=".5" y=".5" width="43" height="43" rx="21.5"/><path d="M19.22 17l6 5.998-6 6.002"/></svg><svg viewBox="0 0 8 12" id="arrow-pag-left" xmlns="http://www.w3.org/2000/svg"><path d="M7 1L2 6l5 5"/></svg><svg viewBox="0 0 8 12" id="arrow-pag-right" xmlns="http://www.w3.org/2000/svg"><path d="M1 11l5-5-5-5"/></svg><svg viewBox="0 0 44 44" id="arrow-prev" xmlns="http://www.w3.org/2000/svg"><rect x="43.5" y="43.5" width="43" height="43" rx="21.5" transform="rotate(-180 43.5 43.5)"/><path d="M24 29l-6-5.998L24 17"/></svg><svg viewBox="0 0 13 11" id="check" xmlns="http://www.w3.org/2000/svg"><path d="M10.969 0L4.875 6.094 2.031 3.25 0 5.281l4.875 4.876L13 2.03 10.969 0z"/></svg><svg viewBox="0 0 10 8" id="check-contacts" xmlns="http://www.w3.org/2000/svg"><path fill-rule="evenodd" clip-rule="evenodd" d="M9.828.195a.73.73 0 010 .943L3.945 7.805a.54.54 0 01-.832 0L.173 4.47a.731.731 0 010-.942.54.54 0 01.831 0L3.53 6.39 8.996.195a.54.54 0 01.832 0z"/></svg><svg viewBox="0 0 54 54" id="logo" xmlns="http://www.w3.org/2000/svg"><path d="M25.105 30.444c.487.095.575-.144.654-.313.078-.17.312-.43.652-.59.341-.163.799-.436.977-.599.18-.163.373-.366.783-.382.41-.017.614-.217.742-.481.132-.264.04-.818.13-1.015.09-.194.317-.54.45-.844.136-.304.019-.279-.182-.191-.2.086-.376.156-.454.426-.08.27-.151.333-.404.518-.255.183-.44.314-.711.402-.275.087-.808.254-1.109.4-.28.137-.576.3-.9.494l-2.069 2.068c.386-.04 1.006.022 1.44.107z"/><path d="M47.559 9.506c-.1.082-.173.156-.19.209-.053.187-.081 1.002-.272 1.352-.186.35-.25 1.02-.253 1.146a1.12 1.12 0 01-.146.55c-.123.205-.376.504-.285.656.091.151.455.423.263.619s-.659.479-.524.768c.14.29.357.822.347 1.039-.01.216-.142.427-.006.572a.61.61 0 01.052.757c-.199.317-1.172 1.686-1.77 2.187-.596.5-1.147 1.064-1.317 1.388-.17.324-.19.572-.275.685-.085.113-.331.287-.509.457-.175.17-.037.274.054.424.092.152.016.392-.13.538-.145.147-.535.357-.292.515.24.159.302.43.187.553-.114.123-.367.457-.383.58-.018.123-.58.127-.849-.055-.266-.183-.706-.473-.611-.564.095-.09.345-.223.57-.504.228-.281.2-.682.328-.727.134-.043.167-.289-.06-.446-.231-.157-.313-.313-.09-.574.224-.261.483-.767.095-.987-.387-.22-.819-.113-1.318.047-.501.161-.416.277-1.059.875-.646.599-.379.928-.772 1.354-.391.424-.358.637-.75 1.062-.39.426-.985.802-1.176 1.13-.191.328.028.4.439.144.411-.255.224-.261.836-.323.614-.061.619.044 1.04-.149.425-.191.652-.327.834-.136.182.193.499.612.64.944.142.332.181.796.065 1.343-.118.546-.048.806-.365 1.138-.318.33-.757.5-1.18.692-.423.191-.285.106-.69.32-.404.217-.488.059-.677-.217-.192-.276-.77-.17-1.03.046-.256.214-1.135 1.156-1.43 1.323-.294.168-1.101.412-1.367.687-.267.276-.32.52-.138.69.186.172.372.781-.096 1.007-.469.226-.743.398-.87.713-.126.317-.713.653-1.068.791-.353.14-1.138.406-1.42.785-.28.378-.495.702-.826.843-.33.144-.926.52-1.286.553-.36.034-.646-.463-1.433-.322-.79.142-1.61.34-1.796.482-.189.141-.394.424-.62.562-.228.134-.424.358-1.065.455-.636.101-.829.138-1.238.372-.406.235-.763.541-1.113.68-.355.14-.739.065-.91.542-.17.477-.252 1.07-.574 1.295-.323.227-.39.404-.668.449-.275.047-.338-1.005-1.02-.89-.685.114-.91.229-1.125.137-.217-.093-.315-.149-.633-.088-.321.06-1.03-.08-1.255.328-.222.406-.499.45-.73 1.086-.237.634-.27.734.064.883.334.15.315.294.13.436-.19.14-.648.432-.776.768-.13.337-.158.541-.34.807-.183.266-.568.63-.394.738.175.107.367.363.168.441-.196.077-.612.207-.926.685-.317.478-1.004 1.09-1.305 1.445a2.42 2.42 0 01-.328.328A26.87 26.87 0 0027 54c14.912 0 27-12.088 27-27a26.89 26.89 0 00-6.441-17.494zM24.588 28.63c-.3-.042-.56.193-.678.302-.12.108-.194.036-.432-.039-.24-.074-.486.184-.554.382-.069.199-.42.171-.552.07-.131-.102-.484.037-.692.177-.206.137-.393.34-.61.561-.219.22.258.432.416.6.15.158.393.08.54.018.148-.064.45-.146.64-.218.191-.07.494-.056.851-.132.04-.008.098-.01.145-.013l2.069-2.069-.069.04c-.352.211-.778.36-1.074.321z"/><path d="M6.184 43.13c1.02-.331 1.92-1.429 2.28-2.019.357-.589 1.27-1.768 1.846-2.523.577-.754 2.067-1.688 3.32-2.1 1.25-.41 2.658-.94 3.378-1.73.718-.789.668-1.018 1.141-1.231.473-.212 1.091-.46 1.239-.718.146-.257.153-1.118.88-1.351.726-.234.7-.244.764-.548.063-.303-.363-.53-.591-.561-.225-.03-.87.13-.78-.087.092-.216.525-.782 1.082-1.038.556-.257 1.222-.707 1.387-.997.165-.29.625-.768 1.182-1.024.558-.256 1.324-.693 1.7-.849.376-.157 1.328-.547 1.53-.664.205-.119.965-.347 1.002-.758.034-.412-.292-.457.085-.925.376-.47.6-.585.935-1.185.331-.6.43-.713.902-.96.471-.246 1.634-.96 1.78-.962.145-.001.483-.016.748-.44.264-.422.593-.376.853-.444.26-.069.643-.745.971-.847.325-.1.445-.501.484-.787.04-.285.192-.932.515-1.012.323-.08.539-.593.62-.873.079-.28.184-1.038.575-1.149.39-.114.255-.049.483-.33.225-.282.416-.756.767-1.04.355-.284.52-.43.615-.833.1-.403.372-1.636.886-2.336.513-.7 1.023-1.067 1.59-1.552.567-.485.583-1.065.904-1.417.32-.352.1-.57.299-.794.194-.223.22-.406.257-.526.038-.122-.136-.353.106-.612.243-.257.45-.25.67-.47.146-.146.115-.27.114-.393A26.847 26.847 0 0027 0C12.088 0 0 12.088 0 27c0 6.17 2.073 11.852 5.555 16.398.203-.102.413-.198.629-.267z"/></svg><svg viewBox="0 0 53 22" id="logo-footer" xmlns="http://www.w3.org/2000/svg"><path fill-rule="evenodd" clip-rule="evenodd" d="M46.666 21.936h.994v-3.32l3.045 2.975a6.6 6.6 0 00.253.187c.071.048.141.091.214.13a.828.828 0 00.201.071c.072.015.145.022.217.022.148 0 .297-.025.436-.091a.993.993 0 00.32-.249c.092-.109.156-.236.202-.369.046-.148.069-.303.069-.454V17.72h-.996v3.311l-3.051-3.002c-.237-.232-.527-.408-.869-.408a.968.968 0 00-.385.082 1.373 1.373 0 00-.334.216 1.108 1.108 0 00-.229.313.837.837 0 00-.088.376v3.328h.001zM31.75 14.85h3.489V8.592l11.511 5.76c1.242.617 3.123.764 4.332 0 1.182-.744 1.535-2.033 1.535-3.359V.126H11.859c-.688 0-1.364.105-2.018.309a5.783 5.783 0 00-1.768.9c-.52.391-.94.871-1.262 1.429-.338.585-.483 1.229-.483 1.898 0 .642.132 1.253.415 1.827a4.602 4.602 0 001.113 1.447 5.039 5.039 0 001.602.945 5.31 5.31 0 001.885.34h14.406v2.178H3.903V0H0v14.852h3.904v-.002h20.471c.635 0 1.253-.115 1.851-.338a5.264 5.264 0 001.583-.937 4.592 4.592 0 001.1-1.419 3.935 3.935 0 00.414-1.803c0-.631-.127-1.23-.387-1.803a4.632 4.632 0 00-1.05-1.477 4.931 4.931 0 00-1.583-.996 5.231 5.231 0 00-1.973-.367H10.131V3.487h38.978v8.025L37.475 5.718c-2.697-1.342-5.725-.859-5.725 2.692v6.44zM5.006 20.973H1.029V18.69h3.977v2.283zm-4.986.963h4.575c.187 0 .368-.031.546-.097.168-.063.324-.153.459-.272.133-.117.238-.256.318-.416.08-.164.117-.342.117-.524v-1.613c0-.186-.035-.364-.115-.534a1.284 1.284 0 00-.313-.41 1.34 1.34 0 00-.451-.268 1.507 1.507 0 00-.545-.1H.019v4.234H.02zm16.175.019v-1.046H11.21v-.579h4.985v-1.015H11.21v-.616h4.985v-1.01h-4.497c-.198 0-.399.029-.587.092-.172.061-.33.146-.469.264a1.235 1.235 0 00-.429.986v1.575c0 .189.035.376.117.544.084.161.191.305.328.425.137.122.297.212.473.279.178.063.363.101.555.101h4.509zm10.44-3.26v-.957h-4.688c-.192 0-.387.029-.574.09-.18.055-.352.139-.504.254a1.352 1.352 0 00-.359.408 1.07 1.07 0 00-.137.541c0 .18.037.357.119.52.076.156.183.299.316.41.135.121.287.209.455.271.174.064.355.098.539.098h4.111v.625h-5.266v.98h4.871c.182 0 .357-.031.525-.096.168-.063.32-.151.452-.268.134-.113.235-.25.314-.403a1.11 1.11 0 00.117-.515 1.2 1.2 0 00-.11-.514 1.335 1.335 0 00-.297-.423 1.467 1.467 0 00-.453-.28 1.449 1.449 0 00-.561-.105H21.45v-.637h5.185v.001zm5.583-.994h-1.112v4.27h1.112v-4.27zm7.294 1.596v1.016h1.953v.597h-4.08v-2.22h5.104v-.988h-4.562c-.39 0-.816.066-1.137.308-.277.212-.398.501-.398.845v1.735c0 .198.037.394.127.571.088.162.202.299.347.413.149.115.317.2.495.255.188.061.385.09.584.09h2.924c.201 0 .398-.024.596-.078.184-.049.355-.127.514-.238a1.24 1.24 0 00.361-.404 1.17 1.17 0 00.135-.571v-1.329h-2.963v-.002z"/></svg><svg viewBox="0 0 24 24" id="mail" xmlns="http://www.w3.org/2000/svg"><path d="M12 0C5.371 0 0 5.373 0 12c0 6.629 5.371 12 12 12 6.626 0 12-5.371 12-12 0-6.627-5.374-12-12-12zm7.177 7.028l.017.003-6.697 6.698a.61.61 0 01-.841-.002l-6.7-6.699h14.221zm-14.688.449c0-.005.003-.008.003-.008l4.551 4.549-4.554 4.554V7.477zm.448 9.621c-.02 0-.039-.01-.059-.013l4.616-4.615 1.709 1.709c.231.233.543.36.874.36.328 0 .64-.127.871-.36l1.653-1.654 4.572 4.573H4.937zm14.689-.452l-4.572-4.572 4.572-4.572v9.144z" opacity=".8"/></svg><svg viewBox="0 0 24 24" id="mail-gray" xmlns="http://www.w3.org/2000/svg"><path d="M12 0C5.371 0 0 5.373 0 12c0 6.629 5.371 12 12 12 6.626 0 12-5.371 12-12 0-6.627-5.374-12-12-12zm7.177 7.028l.017.003-6.697 6.698a.61.61 0 01-.841-.002l-6.7-6.699h14.221zm-14.688.449c0-.005.003-.008.003-.008l4.551 4.549-4.554 4.554V7.477zm.448 9.621c-.02 0-.039-.01-.059-.013l4.616-4.615 1.709 1.709c.231.233.543.36.874.36.328 0 .64-.127.871-.36l1.653-1.654 4.572 4.573H4.937zm14.689-.452l-4.572-4.572 4.572-4.572v9.144z" opacity=".4"/></svg><svg viewBox="0 0 24 24" id="phone" xmlns="http://www.w3.org/2000/svg"><path opacity=".8" d="M12 0C5.373 0 0 5.373 0 12s5.373 12 12 12 12-5.373 12-12S18.627 0 12 0zm3.227 18.184c-1.59-.098-4.717-1.924-6.174-3.564C7.6 12.979 6.157 9.657 6.252 8.064c0 0 1.732-2.291 2.527-2.245.801.048 3.043 2.576 2.195 3.328-.84.747-1.637.701-1.684 1.494-.045.795.701 1.641 1.445 2.483.752.846 1.498 1.685 2.295 1.73.795.05.844-.743 1.684-1.495.844-.748 3.09 1.784 3.041 2.579-.044.792-2.528 2.246-2.528 2.246z"/></svg><svg viewBox="0 0 24 24" id="phone-gray" xmlns="http://www.w3.org/2000/svg"><path opacity=".4" d="M12 0C5.373 0 0 5.373 0 12s5.373 12 12 12 12-5.373 12-12S18.627 0 12 0zm3.227 18.184c-1.59-.098-4.717-1.924-6.174-3.564C7.6 12.979 6.157 9.657 6.252 8.064c0 0 1.732-2.291 2.527-2.245.801.048 3.043 2.576 2.195 3.328-.84.747-1.637.701-1.684 1.494-.045.795.701 1.641 1.445 2.483.752.846 1.498 1.685 2.295 1.73.795.05.844-.743 1.684-1.495.844-.748 3.09 1.784 3.041 2.579-.044.792-2.528 2.246-2.528 2.246z"/></svg><svg viewBox="0 0 60 60" id="play" xmlns="http://www.w3.org/2000/svg"><path opacity=".5" fill-rule="evenodd" clip-rule="evenodd" d="M30 60c16.569 0 30-13.431 30-30C60 13.431 46.569 0 30 0 13.431 0 0 13.431 0 30c0 16.569 13.431 30 30 30zm-7.808-15.353l24.657-14.236-24.657-14.236v28.472z"/></svg><svg viewBox="0 0 16 20" id="price" xmlns="http://www.w3.org/2000/svg"><path d="M10 0H2C.9 0 .01.9.01 2L0 18c0 1.1.891 2 1.99 2H14c1.1 0 2-.9 2-2V6l-6-6zm2 16H4v-2h8v2zm0-4H4v-2h8v2zM9 7V1.5L14.5 7H9z"/></svg></svg>